<svg id="calendar" xmlns="http://www.w3.org/2000/svg" width="24.719" height="24.719" viewBox="0 0 24.719 24.719">
  <g id="Group_533" data-name="Group 533">
    <g id="Group_532" data-name="Group 532">
      <circle id="Ellipse_336" data-name="Ellipse 336" cx="1" cy="1" r="1" transform="translate(17.359 9.359)" fill="#3d538e"/>
      <path id="Path_6439" data-name="Path 6439" d="M20.856,1.931H19.6V.966a.966.966,0,0,0-1.931,0v.966H13.277V.966a.966.966,0,0,0-1.931,0v.966H7V.966a.966.966,0,0,0-1.931,0v.966H3.862A3.867,3.867,0,0,0,0,5.793V20.856a3.867,3.867,0,0,0,3.862,3.862h7.387a.966.966,0,0,0,0-1.931H3.862a1.933,1.933,0,0,1-1.931-1.931V5.793A1.933,1.933,0,0,1,3.862,3.862H5.069v.966A.966.966,0,0,0,7,4.828V3.862h4.345v.966a.966.966,0,0,0,1.931,0V3.862H17.67v.966a.966.966,0,0,0,1.931,0V3.862h1.255a1.933,1.933,0,0,1,1.931,1.931v5.5a.966.966,0,0,0,1.931,0v-5.5A3.867,3.867,0,0,0,20.856,1.931Z" fill="#3d538e"/>
      <path id="Path_6440" data-name="Path 6440" d="M275.842,270a5.842,5.842,0,1,0,5.842,5.842A5.848,5.848,0,0,0,275.842,270Zm0,9.752a3.911,3.911,0,1,1,3.911-3.911A3.915,3.915,0,0,1,275.842,279.752Z" transform="translate(-256.965 -256.965)" fill="#3d538e"/>
      <path id="Path_6441" data-name="Path 6441" d="M373.366,331.979h-.435v-1.014a.966.966,0,0,0-1.931,0v1.979a.966.966,0,0,0,.966.966h1.4a.966.966,0,0,0,0-1.931Z" transform="translate(-353.089 -314.068)" fill="#3d538e"/>
      <circle id="Ellipse_337" data-name="Ellipse 337" cx="1" cy="1" r="1" transform="translate(13.359 9.359)" fill="#3d538e"/>
      <circle id="Ellipse_338" data-name="Ellipse 338" cx="1" cy="1" r="1" transform="translate(9.359 13.359)" fill="#3d538e"/>
      <circle id="Ellipse_339" data-name="Ellipse 339" cx="1" cy="1" r="1" transform="translate(5.359 9.359)" fill="#3d538e"/>
      <circle id="Ellipse_340" data-name="Ellipse 340" cx="1" cy="1" r="1" transform="translate(5.359 13.359)" fill="#3d538e"/>
      <circle id="Ellipse_341" data-name="Ellipse 341" cx="1" cy="1" r="1" transform="translate(5.359 17.359)" fill="#3d538e"/>
      <circle id="Ellipse_342" data-name="Ellipse 342" cx="1" cy="1" r="1" transform="translate(9.359 17.359)" fill="#3d538e"/>
      <circle id="Ellipse_343" data-name="Ellipse 343" cx="1" cy="1" r="1" transform="translate(9.359 9.359)" fill="#3d538e"/>
    </g>
  </g>
</svg>
