<svg xmlns="http://www.w3.org/2000/svg" width="24.772" height="18.861" viewBox="0 0 24.772 18.861">
  <path id="people" d="M12.405,68.938a4.881,4.881,0,1,0-4.881-4.881,4.887,4.887,0,0,0,4.881,4.881Zm0-8.164a3.283,3.283,0,1,1-3.283,3.283,3.287,3.287,0,0,1,3.283-3.283Zm-7.7,9.769A3.073,3.073,0,1,0,1.632,67.47,3.077,3.077,0,0,0,4.705,70.543Zm0-4.548A1.475,1.475,0,1,1,3.23,67.47,1.477,1.477,0,0,1,4.705,65.995Zm15.361,4.548a3.073,3.073,0,1,0-3.073-3.073A3.077,3.077,0,0,0,20.066,70.543Zm0-4.548a1.475,1.475,0,1,1-1.475,1.475A1.477,1.477,0,0,1,20.066,65.995Zm4.706,7.5v1.318a.8.8,0,1,1-1.6,0V73.5a.35.35,0,0,0-.207-.319L21.6,72.565h-2.59a2.864,2.864,0,0,1,1.17,2.307v2.366a.8.8,0,1,1-1.6,0V74.872a1.263,1.263,0,0,0-.747-1.152L15.25,72.567h-.226a2.95,2.95,0,0,1-5.277,0H9.521L6.94,73.72a1.263,1.263,0,0,0-.747,1.152v2.366a.8.8,0,1,1-1.6,0V74.872a2.864,2.864,0,0,1,1.17-2.307H3.174l-1.369.611A.35.35,0,0,0,1.6,73.5v1.318a.8.8,0,0,1-1.6,0V73.5a1.949,1.949,0,0,1,1.153-1.778c1.664-.743,1.624-.75,1.85-.75,3.662,0,3.493-.026,3.707.069l1.159.518,1.155-.516c.2-.089.251-.069,1.276-.069a.8.8,0,0,1,.776.608,1.35,1.35,0,0,0,2.618,0,.8.8,0,0,1,.776-.608h.95c.225,0,.235.029,1.481.585,1.259-.562,1.262-.587,1.485-.587,3.662,0,3.493-.026,3.707.069l1.525.681A1.95,1.95,0,0,1,24.772,73.5Z" transform="translate(0 -59.176)" fill="#3d538e"/>
</svg>
