<svg id="tag" xmlns="http://www.w3.org/2000/svg" width="24.058" height="24.057" viewBox="0 0 24.058 24.057">
  <path id="Path_6437" data-name="Path 6437" d="M21.469,0h-9.13a.7.7,0,0,0-.5.206L.757,11.288a2.593,2.593,0,0,0,0,3.662l8.35,8.35a2.572,2.572,0,0,0,1.831.756h0A2.572,2.572,0,0,0,12.77,23.3L23.852,12.217a.7.7,0,0,0,.206-.5V2.589A2.593,2.593,0,0,0,21.469,0Zm1.18,11.428L11.773,22.3a1.186,1.186,0,0,1-1.669,0l-8.35-8.35a1.182,1.182,0,0,1,0-1.669L12.63,1.409h8.839a1.182,1.182,0,0,1,1.18,1.18Zm0,0" transform="translate(0 0.001)" fill="#3d538e"/>
  <path id="Path_6438" data-name="Path 6438" d="M335.676,85.078a3.023,3.023,0,1,0,2.138.886A3,3,0,0,0,335.676,85.078Zm.777,3.8a1.1,1.1,0,1,1,.322-.777A1.091,1.091,0,0,1,336.453,88.879Zm0,0" transform="translate(-318.309 -81.41)" fill="#3d538e"/>
</svg>
