<svg xmlns="http://www.w3.org/2000/svg" width="94.083" height="94.254" viewBox="0 0 94.083 94.254">
  <g id="agreement" transform="translate(-0.467 -0.001)">
    <g id="Group_443" data-name="Group 443" transform="translate(46.079 44.364)">
      <g id="Group_442" data-name="Group 442">
        <path id="Path_2278" data-name="Path 2278" d="M267.175,249.766l-12.8-7.863a1.412,1.412,0,0,0-.516-.189l-4.006-.707a1.381,1.381,0,0,0-.48,2.72l3.781.667,12.573,7.725a1.381,1.381,0,0,0,1.446-2.353Z" transform="translate(-248.236 -240.986)" fill="#b71616"/>
      </g>
    </g>
    <g id="Group_445" data-name="Group 445" transform="translate(0.467 0.001)">
      <g id="Group_444" data-name="Group 444" transform="translate(0)">
        <path id="Path_2279" data-name="Path 2279" d="M94.177,53.586a1.381,1.381,0,0,0-1.952-.066l-5.6,5.232L60.976,33.443,94.112,2.389A1.381,1.381,0,0,0,92.224.374L58.04,32.41a1.4,1.4,0,0,0-.026,1.991l2.269,2.238-.724.64L44.394,35.972a1.384,1.384,0,0,0-.691.119L31.687,41.564c-.035-.009-.07-.018-.106-.024l-6.912-1.22.559-1.429a1.381,1.381,0,0,0-.773-1.785L2.361,28.269a1.381,1.381,0,0,0-1.026,2.564l20.821,8.329L9.886,70.517,2.309,67.833a1.381,1.381,0,0,0-.922,2.6l8.837,3.13a1.394,1.394,0,0,0,1.747-.8l2.051-5.24,5.373,3.011L18.8,71.5a5.8,5.8,0,0,0,6.724,8.559A5.794,5.794,0,0,0,33.048,84.7a5.8,5.8,0,0,0,7.521,4.642,5.8,5.8,0,0,0,10.668,2.171l.942-1.526.776.476a5.789,5.789,0,0,0,7.978-1.9,5.766,5.766,0,0,0,.844-3.384,5.727,5.727,0,0,0,1.34.162,5.846,5.846,0,0,0,4.952-2.766,5.758,5.758,0,0,0,.848-3.383,5.728,5.728,0,0,0,1.337.161,5.845,5.845,0,0,0,4.952-2.766,5.756,5.756,0,0,0,.848-3.386,5.8,5.8,0,0,0,4.384-10.579l-.946-.581,3.174-3.316,2.968,2.929a1.4,1.4,0,0,0,1.913.026l6.567-6.137A1.381,1.381,0,0,0,94.177,53.586ZM26.323,76.14a3.038,3.038,0,0,1-5.171-3.19l7.734-12.535a3.053,3.053,0,0,1,4.13-1.021,3.142,3.142,0,0,1,.989,4.3Zm7.521,4.641a3.038,3.038,0,1,1-5.171-3.19l6.187-10.028a3.053,3.053,0,0,1,4.13-1.021,3.141,3.141,0,0,1,.989,4.3Zm7.522,4.641a3.038,3.038,0,0,1-4.181.99,3.066,3.066,0,0,1-.99-4.181l4.641-7.521a3.053,3.053,0,0,1,4.13-1.021,3.142,3.142,0,0,1,.989,4.3Zm10.562-.288-3.042,4.929a3.038,3.038,0,0,1-5.171-3.19l3.094-5.014a3.052,3.052,0,0,1,4.13-1.021A3.142,3.142,0,0,1,51.928,85.132ZM77.083,60.557l-6.845-4.206A1.381,1.381,0,0,0,68.792,58.7l10.2,6.266a3.038,3.038,0,1,1-3.181,5.177L64.872,63.426a1.381,1.381,0,0,0-1.446,2.353l8.428,5.178a3.038,3.038,0,1,1-3.181,5.177l-7.638-4.693a1.381,1.381,0,1,0-1.446,2.353l5.128,3.151a3.038,3.038,0,0,1-3.181,5.177s-4.509-2.768-4.552-2.788a1.381,1.381,0,0,0-1.322,2.42l1.918,1.179A3.038,3.038,0,0,1,54.4,88.108l-.771-.474.649-1.052a5.978,5.978,0,0,0,.707-4.546,5.709,5.709,0,0,0-5.96-4.361,5.986,5.986,0,0,0-.014-2.787,5.709,5.709,0,0,0-5.96-4.361A5.878,5.878,0,0,0,40.4,64.163a5.748,5.748,0,0,0-3.32-.783,5.781,5.781,0,0,0-10.539-4.416l-5.69,9.222-5.81-3.254,8.6-21.988,4.685.827a5.8,5.8,0,0,0,6.914,8.921l8.087-3.683a1.381,1.381,0,1,0-1.145-2.513L34.1,50.178a3.038,3.038,0,0,1-2.518-5.529l12.94-5.894L59.911,40.08q.059.005.119.005a1.382,1.382,0,0,0,.914-.346l1.31-1.157L80.7,56.78Z" transform="translate(-0.467 -0.001)" fill="#b71616"/>
      </g>
    </g>
  </g>
</svg>
