<svg xmlns="http://www.w3.org/2000/svg" width="102.627" height="51.486" viewBox="0 0 102.627 51.486">
  <g id="NETA_logo_final_asdasd" data-name="NETA logo final asdasd" transform="translate(17.857 -7.408)">
    <g id="Group_970" data-name="Group 970" transform="translate(-17.857 7.408)">
      <g id="Group_968" data-name="Group 968" transform="translate(4.383 15.129)">
        <g id="Group_965" data-name="Group 965" transform="translate(0 0.001)">
          <path id="Path_4185" data-name="Path 4185" d="M22.97,47.314a1.462,1.462,0,0,1-1.23-.66L11.876,32.533V45.844a1.39,1.39,0,0,1-.449,1.035,1.5,1.5,0,0,1-1.079.435,1.485,1.485,0,0,1-1.47-1.47V27.8A1.457,1.457,0,0,1,9.3,26.777a1.408,1.408,0,0,1,1.079-.449,1.462,1.462,0,0,1,1.23.66L21.47,41.108V27.8a1.392,1.392,0,0,1,.449-1.035,1.483,1.483,0,0,1,2.1,0,1.39,1.39,0,0,1,.449,1.035V45.846a1.39,1.39,0,0,1-.449,1.035A1.464,1.464,0,0,1,22.97,47.314Z" transform="translate(-8.878 -26.328)" fill="#b30174"/>
        </g>
        <g id="Group_966" data-name="Group 966" transform="translate(23.924 0.112)">
          <path id="Path_4186" data-name="Path 4186" d="M32.937,44.721a1.462,1.462,0,0,1,.447,1.073,1.383,1.383,0,0,1-.447,1.029,1.457,1.457,0,0,1-1.043.433H22.053a1.437,1.437,0,0,1-1.059-.433,1.405,1.405,0,0,1-.433-1.029V27.843a1.4,1.4,0,0,1,.433-1.029,1.441,1.441,0,0,1,1.059-.433h9.841a1.453,1.453,0,0,1,1.043.433,1.379,1.379,0,0,1,.447,1.029,1.465,1.465,0,0,1-.447,1.073,1.429,1.429,0,0,1-1.043.447h-8.35v5.994H30.1a1.461,1.461,0,0,1,0,2.923h-6.56v5.994h8.35A1.44,1.44,0,0,1,32.937,44.721Z" transform="translate(-20.561 -26.382)" fill="#72309a"/>
        </g>
        <g id="Group_967" data-name="Group 967" transform="translate(44.311)">
          <path id="Path_4187" data-name="Path 4187" d="M46.115,26.327a1.5,1.5,0,0,1,1.079.435,1.39,1.39,0,0,1,.449,1.035,1.534,1.534,0,0,1-1.528,1.528h-5.55V45.844a1.416,1.416,0,0,1-.435,1.035,1.448,1.448,0,0,1-1.065.435,1.485,1.485,0,0,1-1.47-1.47V29.325h-5.58a1.436,1.436,0,0,1-1.049-.449,1.471,1.471,0,0,1-.449-1.079,1.4,1.4,0,0,1,.449-1.035,1.464,1.464,0,0,1,1.049-.435h14.1Z" transform="translate(-30.517 -26.327)" fill="#0443cc"/>
        </g>
      </g>
      <path id="Path_4188" data-name="Path 4188" d="M107.411,58.955H99.444L96.911,69.6a1.08,1.08,0,0,1-2.111-.063L90.579,49.129,89.7,44.873l-.148-.715L89.521,44l-.116-.552-.254-1.231-2.68-12.957-2.694,15,4.374-.724a.083.083,0,0,1,.092.066l.123.661.126.673a.085.085,0,0,1-.058.1L83.4,46.374l-.034.186L80.746,61.131a1.077,1.077,0,0,1-2,.372L76.007,56.8a.1.1,0,0,0-.166-.008l-1.514,2.1L5.761,57.92v-.246l67.58-.8,1.851-2.563a1,1,0,0,1,1.693.086l2.246,3.856a.08.08,0,0,0,.148-.027l1.993-11.108.034-.186-.3.08-5.295,1.41a1.668,1.668,0,0,1-2.011-.9A1.345,1.345,0,0,1,74.756,45.8c.053-.014.109-.025.166-.035l6.509-1.11.293-.049,4.61-25.67,4.952,23.93h0l13.738-2.343-2.059.548L91.545,44.118l0,0,.052.252L95.9,65.18a.079.079,0,0,0,.156,0l1.621-6.972A1.61,1.61,0,0,1,99.23,56.95h8.146a1.012,1.012,0,0,1,1.011.938A.992.992,0,0,1,107.411,58.955Z" transform="translate(-5.761 -18.939)" fill="#1e94f6"/>
      <g id="Group_969" data-name="Group 969" transform="translate(0.002 41.625)">
        <path id="Path_4189" data-name="Path 4189" d="M7.448,39.328a.048.048,0,0,1,.035-.014H7.86a.046.046,0,0,1,.035.014.048.048,0,0,1,.014.035V42.14a.049.049,0,0,1-.049.049H7.495a.058.058,0,0,1-.057-.033L6.255,40.217c-.006-.008-.011-.012-.017-.011s-.008.007-.008.018l.008,1.915a.049.049,0,0,1-.049.049H5.811a.046.046,0,0,1-.035-.014.048.048,0,0,1-.014-.035V39.361a.049.049,0,0,1,.049-.049h.366a.058.058,0,0,1,.057.033l1.179,1.939c.006.008.011.012.017.011s.008-.007.008-.018l0-1.915A.043.043,0,0,1,7.448,39.328Z" transform="translate(-5.762 -39.219)" fill="#333"/>
        <path id="Path_4190" data-name="Path 4190" d="M8.37,39.706a.048.048,0,0,1,.035-.014h.374a.049.049,0,0,1,.049.049v2a.049.049,0,0,1-.049.049H8.4a.046.046,0,0,1-.035-.014.048.048,0,0,1-.014-.035v-.131c0-.008,0-.014-.008-.017s-.011,0-.017.008a.6.6,0,0,1-.505.217.776.776,0,0,1-.523-.18.639.639,0,0,1-.211-.514V39.741a.046.046,0,0,1,.014-.035.048.048,0,0,1,.035-.014h.378a.049.049,0,0,1,.049.049v1.249a.452.452,0,0,0,.1.308.355.355,0,0,0,.282.115.394.394,0,0,0,.3-.115.424.424,0,0,0,.111-.308V39.741A.048.048,0,0,1,8.37,39.706Z" transform="translate(-4.371 -38.821)" fill="#333"/>
        <path id="Path_4191" data-name="Path 4191" d="M9.415,39.733a.052.052,0,0,1,.025.062l-.069.37q0,.048-.057.029a.472.472,0,0,0-.143-.02.713.713,0,0,0-.082,0A.423.423,0,0,0,8.8,40.3a.394.394,0,0,0-.115.294v1.163a.049.049,0,0,1-.049.049H8.258a.049.049,0,0,1-.049-.049v-2a.046.046,0,0,1,.014-.035.048.048,0,0,1,.035-.014h.378a.049.049,0,0,1,.049.049v.185c0,.011,0,.017.006.018s.008,0,.014-.011a.542.542,0,0,1,.48-.268A.471.471,0,0,1,9.415,39.733Z" transform="translate(-3.199 -38.834)" fill="#333"/>
        <path id="Path_4192" data-name="Path 4192" d="M9.339,41.753a.706.706,0,0,1-.3-.209.461.461,0,0,1-.106-.3v-.037a.049.049,0,0,1,.049-.049h.362a.049.049,0,0,1,.049.049v.008A.219.219,0,0,0,9.5,41.4a.506.506,0,0,0,.286.076.478.478,0,0,0,.268-.068.2.2,0,0,0,.1-.171.154.154,0,0,0-.085-.142,1.392,1.392,0,0,0-.274-.1l-.157-.049a2.251,2.251,0,0,1-.354-.131.7.7,0,0,1-.243-.191.477.477,0,0,1-.1-.311.546.546,0,0,1,.226-.459.965.965,0,0,1,.6-.171,1.115,1.115,0,0,1,.44.08.672.672,0,0,1,.292.222.538.538,0,0,1,.1.323.046.046,0,0,1-.014.035.048.048,0,0,1-.035.014h-.349a.046.046,0,0,1-.035-.014.048.048,0,0,1-.014-.035.212.212,0,0,0-.105-.179.5.5,0,0,0-.286-.072.509.509,0,0,0-.26.06.185.185,0,0,0-.1.166.163.163,0,0,0,.1.151,1.732,1.732,0,0,0,.323.114l.091.025a2.861,2.861,0,0,1,.366.134.74.74,0,0,1,.251.189.471.471,0,0,1,.1.314.534.534,0,0,1-.231.459,1.02,1.02,0,0,1-.612.166A1.261,1.261,0,0,1,9.339,41.753Z" transform="translate(-2.443 -38.834)" fill="#333"/>
        <path id="Path_4193" data-name="Path 4193" d="M10.052,39.767a.306.306,0,1,1,.209.082A.283.283,0,0,1,10.052,39.767Zm-.023,2.456a.048.048,0,0,1-.014-.035V40.183a.049.049,0,0,1,.049-.049h.378a.049.049,0,0,1,.049.049v2.005a.049.049,0,0,1-.049.049h-.378A.046.046,0,0,1,10.03,42.223Z" transform="translate(-1.354 -39.266)" fill="#333"/>
        <path id="Path_4194" data-name="Path 4194" d="M12.049,39.873a.724.724,0,0,1,.2.539v1.348a.049.049,0,0,1-.049.049h-.378a.046.046,0,0,1-.035-.014.048.048,0,0,1-.014-.035V40.51a.439.439,0,0,0-.106-.306.368.368,0,0,0-.283-.117.377.377,0,0,0-.286.115.423.423,0,0,0-.109.3v1.253a.049.049,0,0,1-.049.049h-.378a.049.049,0,0,1-.049-.049v-2a.046.046,0,0,1,.014-.035.048.048,0,0,1,.035-.014h.378a.049.049,0,0,1,.049.049v.131a.017.017,0,0,0,.008.017c.006,0,.01,0,.012-.008a.6.6,0,0,1,.509-.222A.721.721,0,0,1,12.049,39.873Z" transform="translate(-0.784 -38.838)" fill="#333"/>
        <path id="Path_4195" data-name="Path 4195" d="M12.959,39.723a.048.048,0,0,1,.035-.014h.378a.046.046,0,0,1,.035.014.048.048,0,0,1,.014.035v1.911a.857.857,0,0,1-.294.734,1.252,1.252,0,0,1-.771.22,2.486,2.486,0,0,1-.251-.012c-.03,0-.045-.02-.045-.054l.012-.337c0-.03.019-.045.057-.045a2.037,2.037,0,0,0,.214.012.707.707,0,0,0,.454-.121.507.507,0,0,0,.146-.409v-.033c0-.008,0-.013-.008-.014a.02.02,0,0,0-.017.006.619.619,0,0,1-.477.18.916.916,0,0,1-.489-.136.709.709,0,0,1-.308-.415,1.9,1.9,0,0,1-.054-.5,1.594,1.594,0,0,1,.066-.522.792.792,0,0,1,.283-.4.765.765,0,0,1,.472-.149.669.669,0,0,1,.505.189c.006.008.011.011.017.008s.008-.008.008-.017v-.1A.074.074,0,0,1,12.959,39.723Zm-.02,1.253c0-.048.006-.125.006-.232s0-.179-.006-.225a.647.647,0,0,0-.026-.134.41.41,0,0,0-.642-.217.461.461,0,0,0-.148.217.969.969,0,0,0-.049.362,1.073,1.073,0,0,0,.041.357.436.436,0,0,0,.149.216.415.415,0,0,0,.26.085.375.375,0,0,0,.391-.3A.761.761,0,0,0,12.939,40.977Z" transform="translate(0.344 -38.838)" fill="#333"/>
        <path id="Path_4196" data-name="Path 4196" d="M15.122,39.71a.048.048,0,0,1-.035.014h-1.4a.018.018,0,0,0-.02.02v.768a.018.018,0,0,0,.02.02h.942a.049.049,0,0,1,.049.049v.312a.046.046,0,0,1-.014.035.048.048,0,0,1-.035.014h-.942a.018.018,0,0,0-.02.02v.793a.018.018,0,0,0,.02.02h1.4a.049.049,0,0,1,.049.049v.312a.049.049,0,0,1-.049.049h-1.85a.046.046,0,0,1-.035-.014.048.048,0,0,1-.014-.035V39.36a.049.049,0,0,1,.049-.049h1.85a.049.049,0,0,1,.049.049v.312A.05.05,0,0,1,15.122,39.71Z" transform="translate(2.019 -39.219)" fill="#333"/>
        <path id="Path_4197" data-name="Path 4197" d="M15.719,39.327a.048.048,0,0,1,.035-.014h.378a.049.049,0,0,1,.049.049V42.14a.049.049,0,0,1-.049.049h-.378a.046.046,0,0,1-.035-.014.048.048,0,0,1-.014-.035v-.123A.017.017,0,0,0,15.7,42c-.006,0-.011,0-.017.008a.591.591,0,0,1-.472.214.8.8,0,0,1-.493-.152.851.851,0,0,1-.292-.423,1.683,1.683,0,0,1-.074-.514,1.56,1.56,0,0,1,.07-.5.851.851,0,0,1,.292-.423.812.812,0,0,1,.505-.152.591.591,0,0,1,.465.206.017.017,0,0,0,.017.006c.006,0,.008-.006.008-.014v-.891A.04.04,0,0,1,15.719,39.327Zm-.019,1.81a.951.951,0,0,0-.1-.489.347.347,0,0,0-.312-.18.377.377,0,0,0-.329.172.881.881,0,0,0-.123.5,1,1,0,0,0,.1.472.378.378,0,0,0,.349.2.36.36,0,0,0,.325-.2A1,1,0,0,0,15.7,41.137Z" transform="translate(3.234 -39.218)" fill="#333"/>
        <path id="Path_4198" data-name="Path 4198" d="M16.784,39.706a.048.048,0,0,1,.035-.014h.374a.049.049,0,0,1,.049.049v2a.049.049,0,0,1-.049.049h-.374a.046.046,0,0,1-.035-.014.048.048,0,0,1-.014-.035v-.131c0-.008,0-.014-.008-.017s-.011,0-.017.008a.6.6,0,0,1-.505.217.776.776,0,0,1-.523-.18.639.639,0,0,1-.211-.514V39.741a.046.046,0,0,1,.014-.035.048.048,0,0,1,.035-.014h.378a.049.049,0,0,1,.049.049v1.249a.452.452,0,0,0,.1.308.355.355,0,0,0,.282.115.394.394,0,0,0,.3-.115.424.424,0,0,0,.111-.308V39.741A.048.048,0,0,1,16.784,39.706Z" transform="translate(4.445 -38.821)" fill="#333"/>
        <path id="Path_4199" data-name="Path 4199" d="M16.98,41.679a.846.846,0,0,1-.32-.437,1.854,1.854,0,0,1,0-.979.794.794,0,0,1,.319-.429.955.955,0,0,1,.548-.158.982.982,0,0,1,.559.16.765.765,0,0,1,.317.4.862.862,0,0,1,.029.131v.008a.047.047,0,0,1-.045.049l-.37.054h-.008a.048.048,0,0,1-.049-.041.13.13,0,0,0,0-.033c-.006-.022-.011-.041-.017-.057a.356.356,0,0,0-.148-.189.465.465,0,0,0-.263-.074.434.434,0,0,0-.265.08.388.388,0,0,0-.146.22,1.274,1.274,0,0,0-.041.366,1.452,1.452,0,0,0,.037.366.432.432,0,0,0,.148.228.42.42,0,0,0,.268.085.45.45,0,0,0,.269-.08.36.36,0,0,0,.146-.216.052.052,0,0,0,0-.02.018.018,0,0,0,0-.012c.008-.033.027-.047.057-.041l.37.057a.074.074,0,0,1,.035.018.044.044,0,0,1,.011.039c-.008.044-.016.075-.02.094a.734.734,0,0,1-.317.417,1.007,1.007,0,0,1-.559.154A.932.932,0,0,1,16.98,41.679Z" transform="translate(5.587 -38.837)" fill="#333"/>
        <path id="Path_4200" data-name="Path 4200" d="M19.029,39.766a.709.709,0,0,1,.3.249.624.624,0,0,1,.106.36v1.385a.049.049,0,0,1-.049.049h-.379a.049.049,0,0,1-.049-.049v-.131c0-.008,0-.013-.008-.014a.02.02,0,0,0-.017.006.746.746,0,0,1-.583.222.8.8,0,0,1-.508-.157.555.555,0,0,1-.2-.465.6.6,0,0,1,.223-.5.986.986,0,0,1,.631-.179h.44a.018.018,0,0,0,.02-.02v-.1a.322.322,0,0,0-.094-.249.4.4,0,0,0-.283-.088.5.5,0,0,0-.252.055.243.243,0,0,0-.122.154c-.008.033-.027.047-.057.041l-.4-.049a.076.076,0,0,1-.035-.014.024.024,0,0,1-.011-.026.575.575,0,0,1,.269-.411,1.038,1.038,0,0,1,.594-.16A1.1,1.1,0,0,1,19.029,39.766Zm-.21,1.59a.325.325,0,0,0,.143-.271v-.194a.018.018,0,0,0-.02-.02H18.6a.617.617,0,0,0-.343.082.264.264,0,0,0-.125.234.238.238,0,0,0,.1.2.406.406,0,0,0,.249.072A.558.558,0,0,0,18.819,41.357Z" transform="translate(6.69 -38.838)" fill="#333"/>
        <path id="Path_4201" data-name="Path 4201" d="M19.927,40.345a.048.048,0,0,1-.035.014h-.419a.018.018,0,0,0-.02.02v.991a.315.315,0,0,0,.068.226.291.291,0,0,0,.216.071h.123a.049.049,0,0,1,.049.049v.308a.052.052,0,0,1-.049.054l-.214,0a.859.859,0,0,1-.485-.111A.49.49,0,0,1,19,41.55V40.379a.018.018,0,0,0-.02-.02h-.234a.046.046,0,0,1-.035-.014.048.048,0,0,1-.014-.035v-.288a.046.046,0,0,1,.014-.035.048.048,0,0,1,.035-.014h.234a.018.018,0,0,0,.02-.02v-.48a.049.049,0,0,1,.049-.049H19.4a.049.049,0,0,1,.049.049v.48a.018.018,0,0,0,.02.02h.419a.049.049,0,0,1,.049.049v.288A.036.036,0,0,1,19.927,40.345Z" transform="translate(7.786 -39.102)" fill="#333"/>
        <path id="Path_4202" data-name="Path 4202" d="M19.6,39.767a.306.306,0,1,1,.209.082A.283.283,0,0,1,19.6,39.767Zm-.023,2.456a.048.048,0,0,1-.014-.035V40.183a.049.049,0,0,1,.049-.049h.378a.049.049,0,0,1,.049.049v2.005a.049.049,0,0,1-.049.049h-.378A.046.046,0,0,1,19.579,42.223Z" transform="translate(8.652 -39.266)" fill="#333"/>
        <path id="Path_4203" data-name="Path 4203" d="M20.428,41.677a.87.87,0,0,1-.327-.456,1.548,1.548,0,0,1-.069-.468,1.524,1.524,0,0,1,.066-.468.849.849,0,0,1,.329-.448.978.978,0,0,1,.563-.16.918.918,0,0,1,.54.16.857.857,0,0,1,.323.443,1.343,1.343,0,0,1,.074.468,1.478,1.478,0,0,1-.069.468.875.875,0,0,1-.325.458.905.905,0,0,1-.546.166A.918.918,0,0,1,20.428,41.677Zm.817-.332A.48.48,0,0,0,21.4,41.1a1.215,1.215,0,0,0,.041-.345,1.178,1.178,0,0,0-.041-.345.445.445,0,0,0-.157-.24.436.436,0,0,0-.271-.084.429.429,0,0,0-.263.084.464.464,0,0,0-.16.24,1.268,1.268,0,0,0-.041.345,1.317,1.317,0,0,0,.041.345.451.451,0,0,0,.158.243.438.438,0,0,0,.274.086A.408.408,0,0,0,21.245,41.345Z" transform="translate(9.188 -38.838)" fill="#333"/>
        <path id="Path_4204" data-name="Path 4204" d="M22.735,39.873a.724.724,0,0,1,.2.539v1.348a.049.049,0,0,1-.049.049h-.378a.046.046,0,0,1-.035-.014.048.048,0,0,1-.014-.035V40.51a.439.439,0,0,0-.106-.306.368.368,0,0,0-.283-.117.375.375,0,0,0-.286.115.423.423,0,0,0-.109.3v1.253a.049.049,0,0,1-.049.049h-.378a.049.049,0,0,1-.049-.049v-2a.046.046,0,0,1,.014-.035.048.048,0,0,1,.035-.014h.378a.049.049,0,0,1,.049.049v.131a.017.017,0,0,0,.008.017c.006,0,.01,0,.012-.008a.6.6,0,0,1,.509-.222A.723.723,0,0,1,22.735,39.873Z" transform="translate(10.412 -38.838)" fill="#333"/>
        <path id="Path_4205" data-name="Path 4205" d="M25.128,42.177c0,.019-.014.029-.041.029h-.423a.079.079,0,0,1-.062-.029l-.185-.206a.019.019,0,0,0-.029,0,1.41,1.41,0,0,1-.83.268,1.025,1.025,0,0,1-.623-.179.61.61,0,0,1-.245-.523.73.73,0,0,1,.154-.472,1.629,1.629,0,0,1,.417-.357q.025-.016,0-.029a2.268,2.268,0,0,1-.288-.407.677.677,0,0,1-.069-.3.634.634,0,0,1,.1-.343.671.671,0,0,1,.277-.243.917.917,0,0,1,.409-.088.974.974,0,0,1,.423.088.693.693,0,0,1,.289.249.666.666,0,0,1,.105.37.689.689,0,0,1-.148.44,1.514,1.514,0,0,1-.4.345c-.013.008-.016.018,0,.029.125.148.28.321.46.522q.013.016.029,0a3.394,3.394,0,0,0,.255-.329c.017-.03.038-.036.066-.017l.28.16c.032.019.038.041.017.066a3.764,3.764,0,0,1-.341.452l0,.008a.052.052,0,0,0,.017.033c.1.115.195.225.288.329.019.025.036.045.051.062l.039.041A.048.048,0,0,1,25.128,42.177ZM24.1,41.651q.016-.016,0-.029a.377.377,0,0,1-.041-.045l-.041-.049c-.036-.041-.094-.109-.177-.2l-.094-.106c-.044-.047-.1-.106-.16-.18q-.009-.013-.029,0a1.292,1.292,0,0,0-.283.234.386.386,0,0,0-.1.259.269.269,0,0,0,.105.223.435.435,0,0,0,.281.085A1.019,1.019,0,0,0,24.1,41.651Zm-.626-1.841a.263.263,0,0,0-.088.206.328.328,0,0,0,.049.157,2.513,2.513,0,0,0,.209.28.018.018,0,0,0,.029,0,1.219,1.219,0,0,0,.269-.216.334.334,0,0,0,.092-.228.249.249,0,0,0-.091-.2.359.359,0,0,0-.238-.076A.345.345,0,0,0,23.474,39.809Z" transform="translate(11.974 -39.235)" fill="#333"/>
        <path id="Path_4206" data-name="Path 4206" d="M26.581,39.327a.048.048,0,0,1,.014.035v.317a.046.046,0,0,1-.014.035.048.048,0,0,1-.035.014H25.79a.018.018,0,0,0-.02.02v2.391a.049.049,0,0,1-.049.049h-.378a.046.046,0,0,1-.035-.014.048.048,0,0,1-.014-.035V39.747a.018.018,0,0,0-.02-.02h-.728a.046.046,0,0,1-.035-.014.048.048,0,0,1-.014-.035v-.317a.049.049,0,0,1,.049-.049h2A.047.047,0,0,1,26.581,39.327Z" transform="translate(13.867 -39.218)" fill="#333"/>
        <path id="Path_4207" data-name="Path 4207" d="M26.83,39.733a.052.052,0,0,1,.025.062l-.069.37q0,.048-.057.029a.472.472,0,0,0-.143-.02.713.713,0,0,0-.082,0,.423.423,0,0,0-.288.122.394.394,0,0,0-.115.294v1.163a.049.049,0,0,1-.049.049h-.379a.049.049,0,0,1-.049-.049v-2a.046.046,0,0,1,.014-.035.048.048,0,0,1,.035-.014h.379a.049.049,0,0,1,.049.049v.185c0,.011,0,.017.006.018s.008,0,.014-.011a.542.542,0,0,1,.48-.268A.471.471,0,0,1,26.83,39.733Z" transform="translate(15.047 -38.834)" fill="#333"/>
        <path id="Path_4208" data-name="Path 4208" d="M27.708,39.766a.709.709,0,0,1,.3.249.624.624,0,0,1,.106.36v1.385a.049.049,0,0,1-.049.049H27.69a.049.049,0,0,1-.049-.049v-.131c0-.008,0-.013-.008-.014a.02.02,0,0,0-.017.006.746.746,0,0,1-.583.222.8.8,0,0,1-.508-.157.555.555,0,0,1-.2-.465.6.6,0,0,1,.223-.5.986.986,0,0,1,.631-.179h.442a.018.018,0,0,0,.02-.02v-.1a.322.322,0,0,0-.094-.249.4.4,0,0,0-.283-.088.5.5,0,0,0-.252.055.243.243,0,0,0-.122.154c-.008.033-.027.047-.057.041l-.4-.049a.076.076,0,0,1-.035-.014.024.024,0,0,1-.011-.026.575.575,0,0,1,.269-.411,1.038,1.038,0,0,1,.594-.16A1.091,1.091,0,0,1,27.708,39.766Zm-.209,1.59a.325.325,0,0,0,.143-.271v-.194a.018.018,0,0,0-.02-.02h-.345a.617.617,0,0,0-.343.082.264.264,0,0,0-.125.234.238.238,0,0,0,.1.2.406.406,0,0,0,.249.072A.558.558,0,0,0,27.5,41.357Z" transform="translate(15.783 -38.838)" fill="#333"/>
        <path id="Path_4209" data-name="Path 4209" d="M27.526,39.767a.306.306,0,1,1,.209.082A.283.283,0,0,1,27.526,39.767ZM27.5,42.223a.048.048,0,0,1-.014-.035V40.183a.049.049,0,0,1,.049-.049h.378a.049.049,0,0,1,.049.049v2.005a.049.049,0,0,1-.049.049h-.378A.048.048,0,0,1,27.5,42.223Z" transform="translate(16.955 -39.266)" fill="#333"/>
        <path id="Path_4210" data-name="Path 4210" d="M29.524,39.873a.724.724,0,0,1,.2.539v1.348a.049.049,0,0,1-.049.049H29.3a.046.046,0,0,1-.035-.014.048.048,0,0,1-.014-.035V40.51a.439.439,0,0,0-.106-.306.368.368,0,0,0-.283-.117.375.375,0,0,0-.286.115.423.423,0,0,0-.109.3v1.253a.049.049,0,0,1-.049.049h-.379a.049.049,0,0,1-.049-.049v-2A.046.046,0,0,1,28,39.723a.048.048,0,0,1,.035-.014h.379a.049.049,0,0,1,.049.049v.131a.017.017,0,0,0,.008.017c.006,0,.01,0,.012-.008a.6.6,0,0,1,.509-.222A.722.722,0,0,1,29.524,39.873Z" transform="translate(17.524 -38.838)" fill="#333"/>
        <path id="Path_4211" data-name="Path 4211" d="M29.17,39.767a.306.306,0,1,1,.209.082A.283.283,0,0,1,29.17,39.767Zm-.023,2.456a.048.048,0,0,1-.014-.035V40.183a.049.049,0,0,1,.049-.049h.378a.049.049,0,0,1,.049.049v2.005a.049.049,0,0,1-.049.049h-.378A.048.048,0,0,1,29.147,42.223Z" transform="translate(18.677 -39.266)" fill="#333"/>
        <path id="Path_4212" data-name="Path 4212" d="M31.167,39.873a.724.724,0,0,1,.2.539v1.348a.049.049,0,0,1-.049.049H30.94a.046.046,0,0,1-.035-.014.048.048,0,0,1-.014-.035V40.51a.439.439,0,0,0-.106-.306.368.368,0,0,0-.283-.117.377.377,0,0,0-.286.115.423.423,0,0,0-.109.3v1.253a.049.049,0,0,1-.049.049h-.379a.049.049,0,0,1-.049-.049v-2a.046.046,0,0,1,.014-.035.048.048,0,0,1,.035-.014h.379a.049.049,0,0,1,.049.049v.131a.017.017,0,0,0,.008.017c.006,0,.01,0,.012-.008a.6.6,0,0,1,.509-.222A.721.721,0,0,1,31.167,39.873Z" transform="translate(19.246 -38.838)" fill="#333"/>
        <path id="Path_4213" data-name="Path 4213" d="M32.077,39.723a.048.048,0,0,1,.035-.014h.378a.046.046,0,0,1,.035.014.048.048,0,0,1,.014.035v1.911a.857.857,0,0,1-.294.734,1.252,1.252,0,0,1-.771.22,2.486,2.486,0,0,1-.251-.012c-.03,0-.045-.02-.045-.054l.012-.337c0-.03.019-.045.057-.045a2.037,2.037,0,0,0,.214.012.707.707,0,0,0,.454-.121.507.507,0,0,0,.146-.409v-.033c0-.008,0-.013-.008-.014a.02.02,0,0,0-.017.006.619.619,0,0,1-.477.18.916.916,0,0,1-.489-.136.709.709,0,0,1-.308-.415,1.9,1.9,0,0,1-.054-.5,1.594,1.594,0,0,1,.066-.522.792.792,0,0,1,.283-.4.765.765,0,0,1,.472-.149.669.669,0,0,1,.505.189c.006.008.011.011.017.008s.008-.008.008-.017v-.1A.075.075,0,0,1,32.077,39.723Zm-.02,1.253c0-.048.006-.125.006-.232s0-.179-.006-.225a.648.648,0,0,0-.026-.134.41.41,0,0,0-.642-.217.461.461,0,0,0-.148.217.969.969,0,0,0-.049.362,1.073,1.073,0,0,0,.041.357.436.436,0,0,0,.149.216.415.415,0,0,0,.26.085.375.375,0,0,0,.391-.3A.665.665,0,0,0,32.057,40.977Z" transform="translate(20.374 -38.838)" fill="#333"/>
        <path id="Path_4214" data-name="Path 4214" d="M34.126,42.148l-.135-.44c-.006-.011-.012-.017-.02-.017H32.886a.024.024,0,0,0-.02.017l-.136.44a.052.052,0,0,1-.054.041h-.411a.046.046,0,0,1-.037-.014.043.043,0,0,1,0-.043l.891-2.778a.052.052,0,0,1,.054-.041h.514a.053.053,0,0,1,.054.041l.9,2.778a.052.052,0,0,1,0,.02c0,.025-.016.037-.045.037H34.18A.052.052,0,0,1,34.126,42.148Zm-1.117-.83h.834c.017,0,.022-.008.017-.025l-.423-1.377c0-.011-.007-.017-.012-.017s-.01.006-.012.017l-.419,1.377C32.99,41.309,32.995,41.318,33.009,41.318Z" transform="translate(21.96 -39.218)" fill="#333"/>
        <path id="Path_4215" data-name="Path 4215" d="M34.873,39.706a.048.048,0,0,1,.035-.014h.374a.049.049,0,0,1,.049.049v2a.049.049,0,0,1-.049.049h-.374a.046.046,0,0,1-.035-.014.048.048,0,0,1-.014-.035v-.131c0-.008,0-.014-.008-.017s-.011,0-.017.008a.6.6,0,0,1-.505.217.776.776,0,0,1-.523-.18.639.639,0,0,1-.212-.514V39.741a.046.046,0,0,1,.014-.035.048.048,0,0,1,.035-.014h.378a.049.049,0,0,1,.049.049v1.249a.452.452,0,0,0,.1.308.355.355,0,0,0,.282.115.394.394,0,0,0,.3-.115.424.424,0,0,0,.111-.308V39.741A.048.048,0,0,1,34.873,39.706Z" transform="translate(23.398 -38.821)" fill="#333"/>
        <path id="Path_4216" data-name="Path 4216" d="M35.079,41.753a.706.706,0,0,1-.3-.209.461.461,0,0,1-.106-.3v-.037a.049.049,0,0,1,.049-.049h.362a.049.049,0,0,1,.049.049v.008a.219.219,0,0,0,.114.179.506.506,0,0,0,.286.076.478.478,0,0,0,.268-.068.2.2,0,0,0,.1-.171.154.154,0,0,0-.085-.142,1.391,1.391,0,0,0-.274-.1l-.157-.049a2.252,2.252,0,0,1-.354-.131.7.7,0,0,1-.243-.191.477.477,0,0,1-.1-.311.546.546,0,0,1,.226-.459.965.965,0,0,1,.6-.171,1.115,1.115,0,0,1,.44.08.672.672,0,0,1,.292.222.538.538,0,0,1,.1.323.046.046,0,0,1-.014.035.048.048,0,0,1-.035.014h-.349a.046.046,0,0,1-.035-.014A.048.048,0,0,1,35.9,40.3a.212.212,0,0,0-.105-.179.5.5,0,0,0-.286-.072.509.509,0,0,0-.26.06.185.185,0,0,0-.1.166.163.163,0,0,0,.1.151,1.733,1.733,0,0,0,.323.114l.091.025a2.861,2.861,0,0,1,.366.134.74.74,0,0,1,.251.189.471.471,0,0,1,.1.314.534.534,0,0,1-.231.459,1.021,1.021,0,0,1-.613.166A1.259,1.259,0,0,1,35.079,41.753Z" transform="translate(24.526 -38.834)" fill="#333"/>
        <path id="Path_4217" data-name="Path 4217" d="M36.886,40.345a.048.048,0,0,1-.035.014h-.419a.018.018,0,0,0-.02.02v.991a.315.315,0,0,0,.068.226.291.291,0,0,0,.216.071h.123a.049.049,0,0,1,.049.049v.308a.052.052,0,0,1-.049.054l-.214,0a.859.859,0,0,1-.485-.111.49.49,0,0,1-.165-.419V40.379a.018.018,0,0,0-.02-.02H35.7a.046.046,0,0,1-.035-.014.048.048,0,0,1-.014-.035v-.288a.046.046,0,0,1,.014-.035.048.048,0,0,1,.035-.014h.234a.018.018,0,0,0,.02-.02v-.48A.049.049,0,0,1,36,39.423h.357a.049.049,0,0,1,.049.049v.48a.018.018,0,0,0,.02.02h.419a.049.049,0,0,1,.049.049v.288A.039.039,0,0,1,36.886,40.345Z" transform="translate(25.555 -39.102)" fill="#333"/>
        <path id="Path_4218" data-name="Path 4218" d="M37.7,39.733a.052.052,0,0,1,.025.062l-.069.37q0,.048-.057.029a.472.472,0,0,0-.143-.02.713.713,0,0,0-.082,0,.423.423,0,0,0-.288.122.394.394,0,0,0-.115.294v1.163a.049.049,0,0,1-.049.049h-.378a.049.049,0,0,1-.049-.049v-2a.046.046,0,0,1,.014-.035.048.048,0,0,1,.035-.014h.378a.049.049,0,0,1,.049.049v.185c0,.011,0,.017.006.018s.008,0,.014-.011a.542.542,0,0,1,.48-.268A.471.471,0,0,1,37.7,39.733Z" transform="translate(26.432 -38.834)" fill="#333"/>
        <path id="Path_4219" data-name="Path 4219" d="M38.348,42.174a.048.048,0,0,1-.014-.035V39.362a.049.049,0,0,1,.049-.049h.379a.049.049,0,0,1,.049.049V42.14a.049.049,0,0,1-.049.049h-.379A.048.048,0,0,1,38.348,42.174Z" transform="translate(28.365 -39.218)" fill="#333"/>
        <path id="Path_4220" data-name="Path 4220" d="M38.906,39.767a.306.306,0,1,1,.209.082A.283.283,0,0,1,38.906,39.767Zm-.023,2.456a.048.048,0,0,1-.014-.035V40.183a.049.049,0,0,1,.049-.049H39.3a.049.049,0,0,1,.049.049v2.005a.049.049,0,0,1-.049.049h-.378A.048.048,0,0,1,38.883,42.223Z" transform="translate(28.878 -39.266)" fill="#333"/>
        <path id="Path_4221" data-name="Path 4221" d="M40.686,39.766a.709.709,0,0,1,.3.249.624.624,0,0,1,.106.36v1.385a.049.049,0,0,1-.049.049H40.67a.049.049,0,0,1-.049-.049v-.131c0-.008,0-.013-.008-.014a.02.02,0,0,0-.017.006.746.746,0,0,1-.583.222.8.8,0,0,1-.508-.157.555.555,0,0,1-.2-.465.6.6,0,0,1,.223-.5.986.986,0,0,1,.631-.179h.44a.018.018,0,0,0,.02-.02v-.1a.323.323,0,0,0-.094-.249.4.4,0,0,0-.283-.088.5.5,0,0,0-.252.055.243.243,0,0,0-.122.154c-.008.033-.027.047-.057.041l-.4-.049a.076.076,0,0,1-.035-.014.024.024,0,0,1-.011-.026.575.575,0,0,1,.269-.411,1.038,1.038,0,0,1,.594-.16A1.1,1.1,0,0,1,40.686,39.766Zm-.21,1.59a.325.325,0,0,0,.143-.271v-.194a.018.018,0,0,0-.02-.02h-.345a.617.617,0,0,0-.343.082.264.264,0,0,0-.125.234.238.238,0,0,0,.1.2.406.406,0,0,0,.249.072A.558.558,0,0,0,40.476,41.357Z" transform="translate(29.382 -38.838)" fill="#333"/>
        <path id="Path_4222" data-name="Path 4222" d="M38.6,39.766a.709.709,0,0,1,.3.249.624.624,0,0,1,.106.36v1.385a.049.049,0,0,1-.049.049h-.378a.049.049,0,0,1-.049-.049v-.131c0-.008,0-.013-.008-.014a.02.02,0,0,0-.017.006.746.746,0,0,1-.583.222.8.8,0,0,1-.508-.157.555.555,0,0,1-.2-.465.6.6,0,0,1,.223-.5.986.986,0,0,1,.631-.179h.44a.018.018,0,0,0,.02-.02v-.1a.322.322,0,0,0-.094-.249.4.4,0,0,0-.283-.088.5.5,0,0,0-.252.055.243.243,0,0,0-.122.154c-.008.033-.027.047-.057.041l-.4-.049a.076.076,0,0,1-.035-.014.024.024,0,0,1-.011-.026.575.575,0,0,1,.269-.411,1.038,1.038,0,0,1,.594-.16A1.093,1.093,0,0,1,38.6,39.766Zm-.209,1.59a.325.325,0,0,0,.143-.271v-.194a.018.018,0,0,0-.02-.02h-.345a.617.617,0,0,0-.343.082.264.264,0,0,0-.125.234.238.238,0,0,0,.1.2.406.406,0,0,0,.249.072A.562.562,0,0,0,38.393,41.357Z" transform="translate(27.199 -38.838)" fill="#333"/>
      </g>
    </g>
  </g>
</svg>
