<svg id="tick" xmlns="http://www.w3.org/2000/svg" width="23.38" height="23.38" viewBox="0 0 23.38 23.38">
  <g id="Group_860" data-name="Group 860" transform="translate(5.551 2.937)">
    <g id="Group_859" data-name="Group 859">
      <path id="Path_3725" data-name="Path 3725" d="M138.728,64.586a.881.881,0,0,0-1.246,0L126.911,75.128,123.1,70.985a.881.881,0,0,0-1.3,1.194L126.236,77a.88.88,0,0,0,.629.284h.019a.882.882,0,0,0,.622-.257l11.22-11.19A.881.881,0,0,0,138.728,64.586Z" transform="translate(-121.568 -64.327)" fill="#26d87f"/>
    </g>
  </g>
  <g id="Group_862" data-name="Group 862">
    <g id="Group_861" data-name="Group 861">
      <path id="Path_3726" data-name="Path 3726" d="M22.5,10.809a.881.881,0,0,0-.881.881A9.928,9.928,0,1,1,11.69,1.762.881.881,0,1,0,11.69,0,11.69,11.69,0,1,0,23.38,11.69.881.881,0,0,0,22.5,10.809Z" fill="#26d87f"/>
    </g>
  </g>
</svg>
