<svg xmlns="http://www.w3.org/2000/svg" width="48" height="48" viewBox="0 0 48 48">
  <g id="tw" transform="translate(-0.132 0)">
    <g id="Group_3" data-name="Group 3" transform="translate(0 0)">
      <rect id="Rectangle_2" data-name="Rectangle 2" width="48" height="48" rx="4" transform="translate(0.132 0)" fill="none"/>
    </g>
    <path id="Icon_awesome-twitter" data-name="Icon awesome-twitter" d="M23.822,8.755c.017.236.017.472.017.708A15.377,15.377,0,0,1,8.356,24.945,15.378,15.378,0,0,1,0,22.5a11.256,11.256,0,0,0,1.314.067A10.9,10.9,0,0,0,8.07,20.245a5.451,5.451,0,0,1-5.088-3.774,6.862,6.862,0,0,0,1.028.084,5.755,5.755,0,0,0,1.432-.185,5.442,5.442,0,0,1-4.364-5.341v-.067a5.48,5.48,0,0,0,2.46.691A5.45,5.45,0,0,1,1.853,4.375a15.468,15.468,0,0,0,11.22,5.694,6.143,6.143,0,0,1-.135-1.247A5.447,5.447,0,0,1,22.356,5.1,10.714,10.714,0,0,0,25.81,3.785a5.427,5.427,0,0,1-2.392,3,10.909,10.909,0,0,0,3.134-.842A11.7,11.7,0,0,1,23.822,8.755Z" transform="translate(11.567 8.856)" fill="#fff"/>
  </g>
</svg>
