<svg id="user" xmlns="http://www.w3.org/2000/svg" xmlns:xlink="http://www.w3.org/1999/xlink" width="29.276" height="29.276" viewBox="0 0 29.276 29.276">
  <defs>
    <linearGradient id="linear-gradient" x1="0.067" y1="0.564" x2="1" y2="0.574" gradientUnits="objectBoundingBox">
      <stop offset="0" stop-color="#94519f"/>
      <stop offset="0.487" stop-color="#343886"/>
      <stop offset="1" stop-color="#009fe1"/>
    </linearGradient>
  </defs>
  <path id="Path_2825" data-name="Path 2825" d="M14.638,0A14.638,14.638,0,1,0,29.276,14.638,14.654,14.654,0,0,0,14.638,0Zm0,27.56A12.922,12.922,0,1,1,27.56,14.638,12.937,12.937,0,0,1,14.638,27.56Z" fill="url(#linear-gradient)"/>
  <path id="Path_2826" data-name="Path 2826" d="M157,72.008a6,6,0,1,0-6-6A6.011,6.011,0,0,0,157,72.008Zm0-10.292A4.288,4.288,0,1,1,152.715,66,4.293,4.293,0,0,1,157,61.715Z" transform="translate(-142.366 -56.569)" fill="url(#linear-gradient)"/>
  <path id="Path_2827" data-name="Path 2827" d="M99.934,302.027a6.009,6.009,0,0,0-4.5-2.027H85.145a6.009,6.009,0,0,0-4.5,2.027l-.407.459.3.533a11.21,11.21,0,0,0,19.493,0l.3-.533Zm-9.643,4.949a9.52,9.52,0,0,1-7.913-4.248,4.292,4.292,0,0,1,2.766-1.012H95.437a4.292,4.292,0,0,1,2.766,1.012A9.52,9.52,0,0,1,90.291,306.976Z" transform="translate(-75.653 -282.846)" fill="url(#linear-gradient)"/>
</svg>
