<svg xmlns="http://www.w3.org/2000/svg" width="48" height="48" viewBox="0 0 48 48">
  <g id="ins" transform="translate(0.132 0)">
    <rect id="Rectangle_2" data-name="Rectangle 2" width="48" height="48" rx="4" transform="translate(-0.132 0)" fill="none"/>
    <path id="Icon_awesome-instagram" data-name="Icon awesome-instagram" d="M11.1,7.647A5.693,5.693,0,1,0,16.8,13.341,5.684,5.684,0,0,0,11.1,7.647Zm0,9.395a3.7,3.7,0,1,1,3.7-3.7A3.708,3.708,0,0,1,11.1,17.042Zm7.254-9.627a1.328,1.328,0,1,1-1.328-1.328A1.325,1.325,0,0,1,18.357,7.414Zm3.771,1.348a6.572,6.572,0,0,0-1.794-4.653,6.615,6.615,0,0,0-4.653-1.794c-1.833-.1-7.328-.1-9.162,0A6.605,6.605,0,0,0,1.866,4.1,6.593,6.593,0,0,0,.073,8.757c-.1,1.833-.1,7.328,0,9.162a6.572,6.572,0,0,0,1.794,4.653,6.623,6.623,0,0,0,4.653,1.794c1.833.1,7.328.1,9.162,0a6.572,6.572,0,0,0,4.653-1.794,6.615,6.615,0,0,0,1.794-4.653c.1-1.833.1-7.323,0-9.157ZM19.759,19.886A3.747,3.747,0,0,1,17.648,22c-1.462.58-4.93.446-6.546.446S6.014,22.572,4.557,22a3.747,3.747,0,0,1-2.111-2.111C1.866,18.424,2,14.956,2,13.341S1.871,8.252,2.446,6.8A3.747,3.747,0,0,1,4.557,4.684c1.462-.58,4.93-.446,6.546-.446s5.089-.129,6.546.446A3.747,3.747,0,0,1,19.759,6.8c.58,1.462.446,4.93.446,6.546S20.339,18.429,19.759,19.886Z" transform="translate(12.949 9.583)" fill="#fff"/>
  </g>
</svg>
