<svg xmlns="http://www.w3.org/2000/svg" width="20" height="20" viewBox="0 0 20 20">
  <g id="ins" transform="translate(0.037)">
    <g id="Rectangle_2" data-name="Rectangle 2" transform="translate(-0.037 0)" fill="none" stroke="#fff" stroke-width="1">
      <rect width="20" height="20" rx="4" stroke="none"/>
      <rect x="0.5" y="0.5" width="19" height="19" rx="3.5" fill="none"/>
    </g>
    <path id="Icon_awesome-instagram" data-name="Icon awesome-instagram" d="M4.759,4.558A2.442,2.442,0,1,0,7.2,7,2.438,2.438,0,0,0,4.759,4.558Zm0,4.03A1.588,1.588,0,1,1,6.347,7,1.59,1.59,0,0,1,4.759,8.588ZM7.871,4.458a.57.57,0,1,1-.57-.57A.568.568,0,0,1,7.871,4.458Zm1.617.578a2.819,2.819,0,0,0-.769-2,2.837,2.837,0,0,0-2-.769c-.786-.045-3.143-.045-3.93,0a2.833,2.833,0,0,0-2,.767,2.828,2.828,0,0,0-.769,2c-.045.786-.045,3.143,0,3.93a2.819,2.819,0,0,0,.769,2,2.841,2.841,0,0,0,2,.769c.786.045,3.143.045,3.93,0a2.819,2.819,0,0,0,2-.769,2.837,2.837,0,0,0,.769-2c.045-.786.045-3.141,0-3.928ZM8.472,9.808a1.607,1.607,0,0,1-.905.905,10.5,10.5,0,0,1-2.808.191,10.579,10.579,0,0,1-2.808-.191,1.607,1.607,0,0,1-.905-.905A10.5,10.5,0,0,1,.855,7a10.579,10.579,0,0,1,.191-2.808,1.607,1.607,0,0,1,.905-.905A10.5,10.5,0,0,1,4.759,3.1a10.579,10.579,0,0,1,2.808.191,1.607,1.607,0,0,1,.905.905A10.5,10.5,0,0,1,8.663,7,10.491,10.491,0,0,1,8.472,9.808Z" transform="translate(5.356 2.538)" fill="#fff"/>
  </g>
</svg>
