<svg xmlns="http://www.w3.org/2000/svg" width="20" height="20" viewBox="0 0 20 20">
  <g id="tw" transform="translate(-0.037)">
    <g id="Group_3" data-name="Group 3">
      <g id="Rectangle_2" data-name="Rectangle 2" transform="translate(0.037 0)" fill="none" stroke="#fff" stroke-width="1">
        <rect width="20" height="20" rx="4" stroke="none"/>
        <rect x="0.5" y="0.5" width="19" height="19" rx="3.5" fill="none"/>
      </g>
    </g>
    <path id="Icon_awesome-twitter" data-name="Icon awesome-twitter" d="M10.218,5.686c.007.1.007.2.007.3A6.6,6.6,0,0,1,3.584,12.63,6.6,6.6,0,0,1,0,11.583a4.828,4.828,0,0,0,.564.029,4.674,4.674,0,0,0,2.9-1A2.338,2.338,0,0,1,1.279,9a2.943,2.943,0,0,0,.441.036,2.469,2.469,0,0,0,.614-.079A2.334,2.334,0,0,1,.462,6.661V6.633a2.351,2.351,0,0,0,1.055.3A2.338,2.338,0,0,1,.795,3.807,6.635,6.635,0,0,0,5.608,6.25a2.635,2.635,0,0,1-.058-.535,2.336,2.336,0,0,1,4.039-1.6,4.6,4.6,0,0,0,1.481-.564A2.328,2.328,0,0,1,10.044,4.84a4.679,4.679,0,0,0,1.344-.361A5.017,5.017,0,0,1,10.218,5.686Z" transform="translate(4.574 1.573)" fill="#fff"/>
  </g>
</svg>
